<svg xmlns="http://www.w3.org/2000/svg" aria-hidden="true" style="position:absolute;width:0;height:0;overflow:hidden">
  <defs>
    <symbol id="icon-facebook" viewBox="0 0 32 32">
      <path d="M19.52 4.64h.96v3.6h-1.2c-.48 0-.96 0-1.2.24s-.24.48-.24 1.04v1.28h2.64v3.04h-2.64v13.2h-4.08V13.76H11.6v-3.04h2.16V9.68c0-1.76.24-3.04.72-3.6.72-1.04 2.16-1.52 4.32-1.52.24.08.48.08.72.08z"/>
    </symbol>
    <symbol id="icon-instagram" viewBox="0 0 32 32">
      <path d="M28.72 10.76a9.26 9.26 0 0 0-.6-3.15 6.55 6.55 0 0 0-3.74-3.74 9.42 9.42 0 0 0-3.1-.6C19.9 3.23 19.46 3.2 16 3.2s-3.92 0-5.28.08a9.41 9.41 0 0 0-3.1.6A6.54 6.54 0 0 0 3.88 7.6a9.29 9.29 0 0 0-.6 3.1c-.06 1.37-.08 1.8-.08 5.27s0 3.9.08 5.26a9.34 9.34 0 0 0 .6 3.1 6.55 6.55 0 0 0 3.74 3.74 9.37 9.37 0 0 0 3.1.64c1.37.06 1.8.08 5.28.08s3.92 0 5.27-.08a9.36 9.36 0 0 0 3.11-.6 6.55 6.55 0 0 0 3.74-3.73 9.35 9.35 0 0 0 .6-3.1c.06-1.37.08-1.8.08-5.27 0-3.47 0-3.9-.08-5.27zM15.99 22.53a6.56 6.56 0 1 1-.01-13.13 6.56 6.56 0 0 1 .01 13.13zm6.83-11.83a1.53 1.53 0 1 1 0-3.06 1.53 1.53 0 1 1 0 3.06z"/>
      <path d="M16 19.98a4 4 0 1 0 0-8.01 4 4 0 0 0 0 8z"/>
    </symbol>
    <symbol id="icon-youtube" viewBox="0 0 32 32">
      <path d="M24.24 6c-1.36-.08-4.16-.16-8.4-.16h-.56c-4.08 0-6.8.08-8.16.24-1.84.16-3.12.64-3.84 1.28-.64.56-1.12 1.6-1.28 2.96-.08.88-.16 2.72-.16 5.52v.4c0 2.64.08 4.48.24 5.36.24 1.28.64 2.24 1.44 2.8.8.64 2.16 1.04 4.08 1.2 1.36.08 4.16.16 8.4.16h.56c4.08 0 6.8-.08 8.16-.24 1.84-.16 3.12-.64 3.84-1.28.64-.56 1.12-1.6 1.28-2.96.08-.88.16-2.72.16-5.52v-.4c0-2.64-.08-4.48-.24-5.36-.24-1.28-.64-2.24-1.44-2.8-.8-.64-2.16-1.04-4.08-1.2zm-3.12 9.84-8.8 5.28V10.56l8.8 5.28z"/>
    </symbol>
    <symbol id="icon-scroll-down" viewBox="0 0 32 32">
      <path d="M16.95 17.87a1.33 1.33 0 0 1-1.9 0l-6.1-6.12a1.33 1.33 0 1 0-1.9 1.88l6.12 6.12a4 4 0 0 0 5.66 0l6.12-6.12a1.34 1.34 0 0 0-.44-2.18 1.33 1.33 0 0 0-1.46.3l-6.1 6.12z"/>
    </symbol>
    <symbol id="icon-close" viewBox="0 0 32 32">
      <path stroke-linecap="round" stroke-linejoin="round" stroke-width="3" d="M24 8 8 24M8 8l16 16"/>
    </symbol>
    <symbol id="icon-menu" viewBox="0 0 32 32">
      <path stroke-linecap="round" stroke-width="3" d="M6.37 8.38H30.5M6.37 22.32H30.5M14.02 15.35H30.5"/>
    </symbol>
  </defs>
</svg>